<?xml version="1.0" encoding="utf-8"?>
<!-- Generator: Adobe Illustrator 21.1.0, SVG Export Plug-In . SVG Version: 6.00 Build 0)  -->
<svg version="1.1" id="Layer_1" xmlns="http://www.w3.org/2000/svg" xmlns:xlink="http://www.w3.org/1999/xlink" x="0px" y="0px"
	 viewBox="0 0 612 612" style="enable-background:new 0 0 612 612;" xml:space="preserve">
<style type="text/css">
	.st0{fill:#012D41;}
</style>
<path class="st0" d="M61.2,152.4h489.6c33.8,0,61.2-27.4,61.2-61.2S584.6,30,550.8,30H61.2C27.4,30,0,57.4,0,91.2
	S27.4,152.4,61.2,152.4z M550.8,244.8H61.2C27.4,244.8,0,272.2,0,306s27.4,61.2,61.2,61.2h489.6c33.8,0,61.2-27.4,61.2-61.2
	S584.6,244.8,550.8,244.8z M550.8,460.6H61.2C27.4,460.6,0,488,0,521.8S27.4,583,61.2,583h489.6c33.8,0,61.2-27.4,61.2-61.2
	S584.6,460.6,550.8,460.6z"/>
</svg>
