<?xml version="1.0" encoding="utf-8"?>
<!-- Generator: Adobe Illustrator 21.1.0, SVG Export Plug-In . SVG Version: 6.00 Build 0)  -->
<svg version="1.1" id="Capa_1" xmlns="http://www.w3.org/2000/svg" xmlns:xlink="http://www.w3.org/1999/xlink" x="0px" y="0px"
	 viewBox="0 0 345.7 345.7" style="enable-background:new 0 0 345.7 345.7;" xml:space="preserve">
<style type="text/css">
	.st0{fill:#5C7EE5;}
</style>
<g>
	<g>
		<g>
			<path class="st0" d="M239.6,222.1c-4.2,0-7.6-3.4-7.6-7.6c0-2.8,3.9-10.2,7.6-16.1c3.7,6,7.6,13.3,7.6,16.1
				C247.3,218.7,243.8,222.1,239.6,222.1z M164.6,228.4c-0.5,0.5-0.6,1.2-0.3,1.9c0.3,0.6,0.9,1,1.6,1h19.4L104.4,318l47.9-69
				c0.4-0.5,0.4-1.2,0.1-1.8c-0.3-0.6-0.9-0.9-1.5-0.9h-35.4l45.7-54.6h35.9L164.6,228.4z M259.3,185.8h-190
				c-31.6,0-57.2-25.7-57.2-57.2c0-29.4,22-53.9,51.2-56.9L66,71v-2.7c0-31.6,25.7-57.2,57.2-57.2c21.6,0,41.2,12,51,31.4l1.1,2.2
				l2.3-0.7c5.3-1.5,10.6-2.3,15.9-2.3c20.8,0,40,11.3,50.1,29.5l1.1,1.9l2.1-0.5c36.7-8.1,69.7,20.2,69.7,55.9
				C316.6,160.1,290.9,185.8,259.3,185.8z M320.4,112.7c-8-30.7-38.6-52.5-72.6-46.2c-11.4-19-31.9-30.7-54.2-30.7
				c-5.1,0-10.2,0.6-15.3,1.9c-4.1-7.4-9.6-13.8-16-18.9C169.4,7.6,181.9,0,196.1,0c15.2,0,28.8,8.4,35.7,22l1.1,2.2l2.3-0.7
				c18.1-5.3,37.4,3.1,46.2,19.1l1.1,1.9l2.1-0.5c25.8-5.6,48.8,14.2,48.8,39.1C333.5,94.9,328.4,105.4,320.4,112.7z"/>
		</g>
		<g>
			<path class="st0" d="M100,230.5c0-6.4-9.3-20.6-11.1-23.3l-2.3-3.4l-2.3,3.4c-2,2.7-11.3,16.8-11.3,23.3c0,7.4,6,13.5,13.5,13.5
				C93.9,243.9,100,237.9,100,230.5z"/>
		</g>
		<g>
			<path class="st0" d="M193.5,257.4c-0.3,0-0.6,0.1-0.8,0.4l-28.9,34.5c-0.3,0.3-0.3,0.7-0.1,1.1s0.5,0.6,0.9,0.6h20.9l-34.9,50.2
				c-0.3,0.4-0.2,1,0.2,1.4c0.2,0.1,0.4,0.2,0.6,0.2c0.3,0,0.5-0.1,0.7-0.3l58.3-62.5c0.3-0.3,0.4-0.7,0.2-1.1s-0.5-0.6-0.9-0.6
				h-11.4l19.5-22c0.3-0.3,0.3-0.7,0.2-1.1c-0.2-0.4-0.5-0.6-0.9-0.6L193.5,257.4L193.5,257.4z"/>
		</g>
	</g>
</g>
</svg>
